<?xml version="1.0" standalone="no"?>
<!DOCTYPE svg PUBLIC "-//W3C//DTD SVG 20010904//EN"
 "http://www.w3.org/TR/2001/REC-SVG-20010904/DTD/svg10.dtd">
<svg version="1.0" xmlns="http://www.w3.org/2000/svg"
 width="1236.000000pt" height="361.000000pt" viewBox="0 0 1236.000000 361.000000"
 preserveAspectRatio="xMidYMid meet">

<g transform="translate(0.000000,361.000000) scale(0.100000,-0.100000)"
fill="#000000" stroke="none">
<path d="M11202 2602 c8 -19 130 -212 134 -212 3 0 0 8 -5 18 -11 20 2 42 25
42 14 0 74 57 74 70 0 6 6 10 14 10 8 0 16 5 18 11 2 6 16 12 30 12 35 0 27
21 -17 41 -24 12 -65 16 -155 16 -67 0 -120 -3 -118 -8z"/>
<path d="M11044 2580 c-23 -9 -66 -60 -109 -130 -21 -33 -23 -40 -8 -27 27 24
31 22 48 -19 15 -36 11 -89 -6 -78 -5 3 -9 -4 -9 -15 0 -18 3 -20 19 -9 16 10
23 9 38 -8 10 -11 14 -13 8 -4 -9 13 -8 13 8 1 10 -8 15 -21 12 -30 -8 -20 10
-3 104 104 39 43 71 86 71 94 0 8 -11 34 -25 58 -37 63 -94 86 -151 63z"/>
<path d="M10970 2240 c6 -11 13 -20 16 -20 2 0 0 9 -6 20 -6 11 -13 20 -16 20
-2 0 0 -9 6 -20z"/>
<path d="M2047 2213 c-8 -41 -6 -1484 2 -1513 7 -25 7 -25 135 -25 115 0 129
2 142 19 12 17 14 140 14 783 l0 763 -144 0 -144 0 -5 -27z"/>
<path d="M2836 2215 c-14 -15 -16 -93 -16 -781 l0 -765 128 3 127 3 -2 575 -3
575 30 -35 c17 -19 68 -89 114 -155 207 -300 416 -605 447 -652 19 -29 36 -53
39 -52 3 0 30 37 61 82 30 45 109 159 174 252 142 203 274 395 335 487 25 37
48 68 53 68 4 0 7 -259 7 -575 l0 -575 125 0 125 0 -2 778 -3 777 -130 3 -131
3 -30 -33 c-29 -31 -296 -411 -434 -618 -35 -52 -83 -121 -106 -152 -38 -53
-43 -56 -57 -40 -8 9 -65 94 -127 187 -117 176 -342 498 -415 595 l-41 55
-126 3 c-105 2 -129 0 -142 -13z"/>
<path d="M4970 1450 l0 -780 493 0 c291 0 519 4 557 11 184 29 331 164 370
340 7 33 11 91 8 136 -8 134 -69 238 -178 301 -75 42 -74 38 -11 100 114 112
141 284 70 449 -43 99 -166 188 -298 213 -32 6 -252 10 -532 10 l-479 0 0
-780z m965 531 c96 -43 136 -126 111 -232 -28 -120 -73 -148 -265 -161 -75 -5
-225 -8 -334 -6 -162 2 -199 6 -207 18 -11 17 -14 383 -3 393 3 4 153 7 332 7
294 0 330 -2 366 -19z m66 -649 c97 -38 129 -90 129 -207 0 -88 -29 -140 -100
-179 l-55 -31 -366 -3 -366 -3 -6 77 c-4 42 -7 141 -7 220 l0 143 73 4 c39 2
200 3 357 2 266 -2 289 -3 341 -23z"/>
<path d="M7279 2088 c-39 -79 -95 -188 -124 -243 -104 -199 -573 -1131 -580
-1153 l-7 -23 148 3 147 3 53 90 c28 50 51 91 49 93 -5 6 -116 -39 -183 -73
-40 -21 -75 -36 -77 -33 -3 2 60 49 139 103 143 97 144 98 171 162 16 35 49
99 74 141 48 80 65 112 151 297 75 160 164 335 171 335 7 0 103 -191 145 -288
l27 -64 36 7 c40 7 144 55 178 82 l21 18 -171 340 -172 340 -62 3 -62 3 -72
-143z"/>
<path d="M8477 2223 c-4 -3 -7 -354 -7 -780 l0 -774 133 3 132 3 3 278 2 277
200 0 200 0 40 -51 c22 -28 75 -101 117 -162 42 -62 114 -165 161 -230 l84
-118 159 2 c87 1 159 5 159 9 0 9 -52 82 -180 255 -57 77 -132 180 -167 229
l-63 89 64 22 c77 27 166 84 207 134 122 147 145 392 53 573 -58 114 -194 214
-323 238 -60 11 -964 14 -974 3z m958 -250 c95 -51 135 -122 135 -240 -1 -119
-43 -197 -135 -246 -38 -21 -54 -22 -366 -25 l-326 -3 -8 249 c-4 137 -4 259
0 271 l7 22 326 -3 c313 -3 329 -4 367 -25z"/>
<path d="M11005 2217 c-12 -9 -14 -16 -7 -21 6 -3 16 3 22 14 13 24 10 25 -15
7z"/>
<path d="M10761 2075 c-41 -80 -127 -246 -191 -368 -274 -521 -530 -1017 -530
-1027 0 -17 285 -13 299 4 6 8 122 235 256 505 135 270 246 491 248 491 5 0
75 -134 203 -385 l101 -200 186 -3 c103 -1 187 1 187 6 0 20 -59 94 -97 122
-33 24 -58 61 -114 163 -40 73 -138 249 -219 392 -81 143 -169 302 -196 352
-27 51 -51 93 -54 93 -3 0 -38 -65 -79 -145z"/>
<path d="M11805 2079 c-4 -6 -4 -13 0 -17 6 -7 10 -8 36 -11 8 -1 8 -5 -1 -16
-10 -12 -15 -12 -33 5 -24 23 -33 25 -43 9 -5 -8 -8 -8 -13 0 -12 19 -116 15
-129 -6 -4 -6 -19 -10 -33 -8 -46 5 -53 -8 -30 -53 28 -55 27 -64 -14 -86 -19
-11 -33 -21 -31 -23 9 -9 316 -76 322 -70 6 6 64 199 64 213 0 17 -17 18 -23
2 -3 -10 -8 -10 -18 1 -9 8 -9 11 -2 7 9 -5 11 -2 7 9 -4 9 2 25 11 35 10 11
13 20 7 20 -6 0 -14 -4 -17 -10 -3 -5 -17 -10 -31 -10 -14 0 -22 4 -19 10 3 6
4 10 1 10 -3 0 -8 -5 -11 -11z m-205 -194 c0 -7 -30 -13 -34 -7 -3 4 4 9 15 9
10 1 19 0 19 -2z"/>
<path d="M7820 1475 c0 -51 -27 -177 -56 -255 -13 -37 -24 -75 -24 -84 0 -16
71 -171 163 -356 l52 -105 134 -3 c84 -2 138 1 145 8 7 7 -53 136 -194 420
-113 226 -208 410 -212 410 -5 0 -8 -16 -8 -35z"/>
<path d="M7688 1394 c-21 -7 -88 -18 -150 -24 -197 -20 -283 -55 -373 -152
-50 -53 -125 -183 -125 -215 0 -9 22 1 63 27 34 23 94 56 132 75 109 53 335
148 341 142 8 -7 -90 -68 -221 -137 -134 -70 -221 -129 -280 -189 l-39 -41
130 0 c145 0 201 12 297 63 74 39 166 137 205 219 27 58 82 217 82 239 0 12
-16 10 -62 -7z"/>
<path d="M12229 1284 c-1 -5 -2 -14 -3 -20 -2 -22 -36 -45 -56 -39 -13 4 -34
-1 -56 -14 -19 -12 -42 -21 -50 -21 -8 0 -12 -5 -9 -10 4 -6 0 -23 -8 -39 -13
-27 -12 -32 14 -74 35 -57 52 -66 113 -60 88 7 136 51 136 123 0 47 -76 191
-81 154z m6 -54 c3 -5 -1 -10 -10 -10 -9 0 -13 5 -10 10 3 6 8 10 10 10 2 0 7
-4 10 -10z"/>
<path d="M826 1222 c-49 -26 -106 -63 -127 -82 l-39 -35 0 -180 c-1 -99 -1
-188 -1 -198 1 -16 31 -17 539 -15 l537 3 0 120 0 120 -396 3 -397 2 -6 36
c-4 19 -7 83 -6 142 1 134 2 132 -7 132 -5 0 -48 -22 -97 -48z"/>
<path d="M12020 1140 c0 -5 5 -10 11 -10 5 0 7 5 4 10 -3 6 -8 10 -11 10 -2 0
-4 -4 -4 -10z"/>
<path d="M10807 958 c-95 -126 -95 -125 -44 -200 63 -94 111 -157 120 -158 19
-1 4 41 -20 54 -16 8 -23 15 -18 16 6 0 4 4 -3 9 -18 11 27 40 69 45 17 1 34
9 39 16 4 7 13 9 19 6 6 -4 11 -2 11 5 0 7 8 21 17 31 15 17 15 20 3 28 -10 6
-11 10 -3 10 7 0 11 13 10 33 -2 33 -17 57 -36 57 -6 0 -8 6 -5 14 3 8 12 12
20 9 8 -3 14 0 14 6 0 6 -20 11 -47 11 -63 0 -75 9 -72 53 2 20 1 38 -1 41 -3
2 -36 -36 -73 -86z m-42 -118 c3 -5 1 -10 -4 -10 -6 0 -11 5 -11 10 0 6 2 10
4 10 3 0 8 -4 11 -10z"/>
<path d="M12230 964 c-26 -9 -108 -13 -305 -14 -148 -1 -263 -4 -255 -8 55
-25 88 -56 117 -111 10 -19 41 -56 68 -84 28 -27 49 -54 48 -58 -2 -5 36 -9
85 -9 125 0 136 8 217 170 36 71 64 129 63 129 -2 -1 -19 -7 -38 -15z"/>
<path d="M10910 680 c0 -5 5 -10 11 -10 5 0 7 5 4 10 -3 6 -8 10 -11 10 -2 0
-4 -4 -4 -10z"/>
<path d="M1742 229 c-12 -19 -82 -178 -82 -186 0 -2 5 -3 10 -3 6 0 16 11 22
25 10 23 17 25 70 25 53 0 60 -2 70 -25 6 -14 17 -25 24 -25 12 0 -12 65 -66
183 -16 32 -31 34 -48 6z m54 -105 c-5 -12 -76 -22 -76 -10 0 2 9 26 21 53
l21 48 20 -38 c10 -22 17 -45 14 -53z"/>
<path d="M1970 145 c0 -63 4 -105 10 -105 6 0 10 42 10 105 0 63 -4 105 -10
105 -6 0 -10 -42 -10 -105z"/>
<path d="M2300 145 c0 -87 3 -105 15 -105 11 0 15 11 15 38 l0 37 45 1 c55 2
85 25 85 66 0 47 -31 68 -100 68 l-60 0 0 -105z m128 41 c4 -35 -10 -46 -60
-46 -38 0 -38 0 -38 41 l0 40 48 -3 c44 -3 47 -5 50 -32z"/>
<path d="M2581 221 c-25 -23 -31 -37 -31 -71 0 -52 13 -76 50 -95 47 -24 95
-19 132 14 28 25 33 36 33 76 0 40 -5 51 -33 76 -46 41 -107 41 -151 0z m137
-27 c30 -34 28 -70 -7 -105 -35 -34 -68 -37 -105 -8 -43 34 -33 119 17 139 32
13 69 3 95 -26z"/>
<path d="M2850 240 c0 -6 14 -54 31 -106 39 -117 53 -120 89 -17 14 39 28 74
31 78 4 3 19 -30 34 -75 36 -108 50 -105 94 23 18 54 31 100 28 103 -13 14
-28 -12 -48 -82 -12 -40 -26 -74 -30 -74 -4 0 -17 29 -29 64 -11 34 -27 72
-35 82 -19 25 -27 13 -57 -78 -12 -38 -25 -68 -29 -68 -4 0 -17 35 -30 77 -13
42 -30 78 -37 81 -6 2 -12 -2 -12 -8z"/>
<path d="M3260 145 l0 -105 80 0 c47 0 80 4 80 10 0 6 -29 10 -66 10 l-65 0 3
38 3 37 58 3 c73 4 66 22 -9 22 -53 0 -54 0 -54 30 l0 30 60 0 c47 0 60 3 60
15 0 12 -15 15 -75 15 l-75 0 0 -105z"/>
<path d="M3520 145 c0 -87 3 -105 15 -105 11 0 15 11 15 40 0 38 2 40 30 40
17 0 30 -4 30 -8 0 -15 58 -77 65 -70 4 4 -3 21 -15 38 l-22 30 26 31 c32 38
33 53 1 84 -20 21 -34 25 -85 25 l-60 0 0 -105z m134 53 c15 -25 -8 -45 -61
-54 l-43 -7 0 42 0 42 46 -3 c31 -2 51 -9 58 -20z"/>
<path d="M3790 145 l0 -105 75 0 c43 0 75 4 75 10 0 6 -27 10 -61 10 l-60 0 3
38 3 37 53 3 c69 4 67 22 -3 22 -54 0 -55 0 -55 30 0 28 1 29 57 32 34 2 58 8
61 16 3 9 -16 12 -72 12 l-76 0 0 -105z"/>
<path d="M4050 146 l0 -106 50 0 c121 0 181 94 111 172 -25 29 -35 32 -95 36
l-66 4 0 -106z m140 54 c12 -12 20 -33 20 -54 0 -45 -46 -86 -96 -86 l-34 0 0
80 0 80 45 0 c32 0 51 -6 65 -20z"/>
<path d="M4471 238 c0 -7 15 -53 32 -103 21 -59 37 -90 47 -90 10 0 24 26 40
72 14 39 28 74 31 78 4 3 17 -23 28 -58 25 -75 45 -107 59 -92 14 15 76 195
69 201 -16 16 -31 -14 -57 -113 -13 -53 -25 -54 -40 -5 -27 85 -43 122 -56
122 -7 0 -24 -36 -39 -81 -15 -44 -30 -78 -34 -74 -3 3 -17 38 -31 77 -14 40
-31 73 -37 76 -7 2 -13 -2 -12 -10z"/>
<path d="M4916 213 c-48 -98 -75 -173 -62 -173 7 0 18 11 24 25 10 22 18 25
67 25 49 0 57 -3 67 -25 6 -14 17 -25 25 -25 16 0 16 0 -1 36 -7 16 -28 62
-46 102 -18 39 -38 72 -45 72 -6 0 -19 -17 -29 -37z m67 -95 c-2 -5 -20 -8
-39 -8 -40 0 -42 10 -17 71 l16 42 22 -49 c12 -27 20 -52 18 -56z"/>
<path d="M5157 232 c-36 -39 -13 -82 52 -99 43 -11 60 -35 41 -58 -14 -17 -40
-17 -100 0 l-25 7 24 -21 c31 -28 94 -28 121 -1 40 40 18 79 -57 99 -47 13
-56 22 -47 45 8 22 44 29 78 16 35 -13 48 -4 22 16 -28 20 -89 18 -109 -4z"/>
<path d="M5370 235 c0 -10 11 -15 35 -15 l35 0 0 -90 c0 -73 3 -90 15 -90 12
0 15 17 15 90 l0 90 35 0 c24 0 35 5 35 15 0 12 -16 15 -85 15 -69 0 -85 -3
-85 -15z"/>
<path d="M5640 145 l0 -105 76 0 c56 0 75 3 71 13 -2 8 -21 11 -60 9 -63 -4
-75 6 -63 53 6 23 11 25 61 25 30 0 55 5 55 10 0 6 -27 10 -60 10 l-60 0 0 30
c0 29 2 30 48 31 70 2 75 3 79 17 4 9 -15 12 -71 12 l-76 0 0 -105z"/>
<path d="M6030 180 c0 -74 17 -123 45 -134 37 -14 86 -6 110 19 22 22 25 32
25 105 0 64 -3 80 -15 80 -12 0 -15 -15 -15 -79 0 -71 -2 -82 -22 -95 -30 -21
-54 -20 -78 4 -16 16 -20 33 -20 95 0 60 -3 75 -15 75 -12 0 -15 -14 -15 -70z"/>
<path d="M6330 145 c0 -63 4 -105 10 -105 6 0 10 16 10 35 0 32 3 35 29 35 94
0 140 62 86 115 -20 21 -34 25 -80 25 l-55 0 0 -105z m124 53 c19 -31 -4 -53
-55 -53 -44 0 -44 0 -47 38 l-3 38 47 -3 c31 -2 51 -9 58 -20z"/>
<path d="M6621 236 c-31 -17 -50 -53 -51 -94 0 -51 54 -102 108 -102 26 0 48
7 63 21 l24 21 -25 -8 c-52 -15 -102 -9 -121 15 -21 25 -25 72 -9 100 15 30
64 45 101 32 38 -13 52 -5 25 15 -25 17 -83 18 -115 0z"/>
<path d="M6867 208 c15 -24 34 -51 42 -61 10 -11 15 -35 13 -63 -1 -33 2 -44
13 -44 11 0 15 11 15 41 0 31 10 54 41 100 22 33 39 63 36 65 -10 10 -34 -9
-57 -46 -14 -22 -28 -40 -32 -40 -4 0 -21 20 -38 45 -41 60 -71 62 -33 3z"/>
<path d="M7138 221 c-28 -25 -33 -36 -33 -76 0 -40 5 -51 33 -76 40 -36 98
-40 133 -8 l24 21 -25 -7 c-66 -18 -85 -17 -107 7 -13 13 -26 38 -29 56 -5 26
-1 36 25 63 32 32 41 33 111 14 l25 -7 -24 21 c-35 32 -93 28 -133 -8z"/>
<path d="M7397 243 c-9 -8 -9 -166 -1 -187 5 -12 21 -16 70 -16 77 0 86 18 12
22 l-53 3 -3 93 c-3 85 -8 103 -25 85z"/>
<path d="M7637 243 c-4 -3 -7 -51 -7 -105 0 -80 3 -98 15 -98 12 0 15 18 15
105 0 96 -5 117 -23 98z"/>
<path d="M7780 145 c0 -85 3 -105 15 -105 11 0 15 18 17 81 l3 80 37 -48 c49
-63 97 -113 109 -113 5 0 9 45 9 105 0 90 -2 105 -16 105 -14 0 -16 -12 -13
-85 2 -47 4 -85 3 -85 0 0 -31 38 -69 85 -37 47 -74 85 -82 85 -10 0 -13 -24
-13 -105z"/>
<path d="M8109 221 c-24 -24 -29 -38 -29 -76 0 -38 5 -52 30 -76 28 -28 34
-30 95 -27 64 3 65 3 71 35 10 52 2 68 -35 71 -18 2 -38 -1 -44 -7 -8 -8 -3
-11 16 -11 35 0 45 -25 22 -50 -23 -26 -65 -25 -99 1 -21 16 -26 29 -26 63 0
70 43 92 135 71 l30 -6 -24 20 c-37 33 -105 29 -142 -8z"/>
<path d="M8520 144 c0 -80 3 -105 13 -102 6 3 13 19 15 36 3 26 8 32 26 32 37
0 86 21 96 40 16 29 12 49 -15 75 -20 21 -34 25 -80 25 l-55 0 0 -106z m126
49 c9 -33 -15 -53 -63 -53 -32 0 -33 1 -33 40 l0 40 45 0 c40 0 45 -3 51 -27z"/>
<path d="M8777 243 c-4 -3 -7 -51 -7 -105 l0 -98 70 0 c81 0 95 18 18 22 l-53
3 -3 93 c-3 85 -8 103 -25 85z"/>
<path d="M9046 169 c-54 -118 -58 -129 -42 -129 7 0 18 11 24 25 10 22 18 25
67 25 49 0 57 -3 67 -25 10 -23 39 -36 37 -17 -1 18 -95 197 -105 199 -6 2
-28 -33 -48 -78z m74 -5 c11 -25 20 -48 20 -50 0 -2 -20 -4 -45 -4 -25 0 -45
2 -45 4 0 11 40 96 45 96 3 0 15 -21 25 -46z"/>
<path d="M9252 238 c3 -7 19 -14 36 -16 l32 -3 0 -90 c0 -72 3 -89 15 -89 12
0 15 17 15 89 l0 90 32 3 c17 2 33 9 36 16 3 9 -18 12 -83 12 -65 0 -86 -3
-83 -12z"/>
<path d="M9520 145 c0 -108 13 -139 24 -60 l7 45 50 0 c37 0 49 4 49 15 0 11
-12 15 -50 15 -49 0 -50 1 -50 30 0 28 1 29 57 32 34 2 58 8 61 16 3 9 -16 12
-72 12 l-76 0 0 -105z"/>
<path d="M9794 232 c-46 -36 -56 -93 -27 -142 20 -34 52 -50 99 -50 51 0 104
53 104 105 0 29 -8 45 -34 71 -28 28 -41 34 -77 34 -27 0 -53 -7 -65 -18z m96
-12 c19 0 50 -45 50 -71 0 -41 -9 -58 -42 -75 -73 -38 -142 31 -112 111 8 20
63 46 82 40 8 -3 18 -5 22 -5z"/>
<path d="M10070 145 c0 -87 3 -105 15 -105 11 0 15 11 15 40 0 35 3 40 22 40
14 0 37 -16 59 -42 41 -47 64 -47 30 0 -26 37 -26 36 5 67 18 18 23 31 19 48
-12 41 -42 57 -106 57 l-59 0 0 -105z m134 52 c15 -25 -24 -57 -70 -57 -33 0
-34 1 -34 41 l0 40 46 -3 c32 -2 50 -9 58 -21z"/>
<path d="M10340 144 c0 -80 3 -105 13 -102 7 3 14 32 17 79 l5 74 35 -52 c19
-29 37 -53 40 -53 3 1 21 26 40 58 l35 57 3 -82 c2 -65 6 -83 17 -83 12 0 15
17 15 83 0 87 -7 127 -21 127 -5 0 -22 -19 -39 -42 -16 -24 -35 -51 -42 -62
-13 -17 -17 -14 -51 43 -56 90 -67 83 -67 -45z"/>
<path d="M373 153 c170 -2 444 -2 610 0 166 1 28 2 -308 2 -335 0 -471 -1
-302 -2z"/>
<path d="M1408 153 c7 -3 16 -2 19 1 4 3 -2 6 -13 5 -11 0 -14 -3 -6 -6z"/>
<path d="M11043 153 c147 -2 387 -2 535 0 147 1 26 2 -268 2 -294 0 -415 -1
-267 -2z"/>
<path d="M2107 134 c-13 -14 6 -24 44 -24 28 0 39 4 39 15 0 11 -11 15 -38 15
-21 0 -42 -3 -45 -6z"/>
</g>
</svg>
